<svg width="512" height="512" xmlns="http://www.w3.org/2000/svg">
 <title/>

 <g>
  <title>background</title>
  <rect fill="none" id="canvas_background" height="402" width="582" y="-1" x="-1"/>
 </g>
 <g>
  <title>Layer 1</title>
  <path fill="#a01c1c" id="svg_1" d="m356.65,450l-185.18,0a41,41 0 0 1 -40.9,-40.9l0,-288.44a15,15 0 0 1 15,-15l237,0a15,15 0 0 1 15,15l0,288.44a41,41 0 0 1 -40.92,40.9zm-196.08,-314.34l0,273.44a10.91,10.91 0 0 0 10.9,10.9l185.18,0a10.91,10.91 0 0 0 10.91,-10.9l0,-273.44l-206.99,0z"/>
  <path fill="#a01c1c" id="svg_2" d="m327.06,135.66l-126,0a15,15 0 0 1 -15,-15l0,-27.26a44.79,44.79 0 0 1 44.74,-44.73l66.52,0a44.79,44.79 0 0 1 44.74,44.73l0,27.26a15,15 0 0 1 -15,15zm-111,-30l96,0l0,-12.26a14.75,14.75 0 0 0 -14.74,-14.73l-66.52,0a14.75,14.75 0 0 0 -14.73,14.73l-0.01,12.26z"/>
  <path fill="#a01c1c" id="svg_3" d="m264.06,392.58a15,15 0 0 1 -15,-15l0,-199.49a15,15 0 1 1 30,0l0,199.49a15,15 0 0 1 -15,15z"/>
  <path fill="#a01c1c" id="svg_6" d="m405.81,135.66l-283.49,0a15,15 0 0 1 0,-30l283.49,0a15,15 0 0 1 0,30z"/>
 </g>
</svg>